# xmcd
#
# Track frame offsets:
#	225
#	20445
#	35157
#	48450
#	69785
#	83956
#	97694
#	119922
#	132753
#	150152
#
# Disc length: 2320 seconds
#
# Revision: 0
# Processed by: cddbd v1.5.2PL0 Copyright (c) Steve Scherf et al.
# Submitted via: EasyCDDAExtractor 2010.6.0.0
#
DISCID=78090d0a
DTITLE=The Cowboy Heroes - There's More To Country Music
DYEAR=2007
DGENRE=Country
TTITLE0=Hey Little Sister
TTITLE1=Leave Me Alone
TTITLE2=Last Time I Saw Her
TTITLE3=Call It the Blues
TTITLE4=Welcome To My Home
TTITLE5=Whiskey In The bottle
TTITLE6=I'm Sorry
TTITLE7=There's More To Country Music
TTITLE8=Movin' On
TTITLE9=My Old Friend
EXTD=
EXTT0=
EXTT1=
EXTT2=
EXTT3=
EXTT4=
EXTT5=
EXTT6=
EXTT7=
EXTT8=
EXTT9=
PLAYORDER=
